<?xml version="1.0" standalone="no"?>
<!DOCTYPE svg PUBLIC "-//W3C//DTD SVG 20010904//EN"
 "http://www.w3.org/TR/2001/REC-SVG-20010904/DTD/svg10.dtd">
<svg version="1.0" xmlns="http://www.w3.org/2000/svg"
 width="44.000000pt" height="44.000000pt" viewBox="0 0 44.000000 44.000000"
 preserveAspectRatio="xMidYMid meet">

<g transform="translate(0.000000,44.000000) scale(0.100000,-0.100000)"
fill="#000000" stroke="none">
<path d="M0 245 c0 -195 0 -196 25 -220 23 -24 30 -25 147 -25 144 0 164 8
174 71 5 30 11 39 26 39 10 0 30 11 43 25 21 20 25 34 25 85 0 51 -4 65 -25
85 -13 14 -33 25 -45 25 -18 0 -20 6 -20 55 l0 55 -175 0 -175 0 0 -195z m263
66 c17 -17 12 -117 -7 -146 -32 -49 -137 -73 -170 -39 -21 21 -20 90 2 134 22
45 74 73 126 66 21 -2 43 -9 49 -15z m135 -33 c16 -16 16 -100 0 -116 -7 -7
-20 -12 -30 -12 -16 0 -18 9 -18 70 0 61 2 70 18 70 10 0 23 -5 30 -12z"/>
<path d="M190 283 c0 -25 1 -26 20 -8 21 19 18 35 -6 35 -9 0 -14 -10 -14 -27z"/>
<path d="M147 293 c-4 -3 -7 -24 -7 -46 0 -34 2 -38 15 -27 8 7 15 28 15 46 0
32 -9 42 -23 27z"/>
<path d="M225 260 c-18 -19 -17 -20 8 -20 17 0 27 5 27 14 0 24 -16 27 -35 6z"/>
<path d="M103 241 c-16 -41 -17 -81 -3 -81 16 0 22 23 18 71 l-3 44 -12 -34z"/>
<path d="M174 205 c-18 -13 -15 -14 29 -15 35 0 47 4 47 15 0 20 -50 20 -76 0z"/>
<path d="M125 151 c-9 -15 10 -21 44 -15 47 10 48 24 2 24 -22 0 -42 -4 -46
-9z"/>
</g>
</svg>
